<svg width="36" height="36" xmlns="http://www.w3.org/2000/svg" xmlns:xlink="http://www.w3.org/1999/xlink" overflow="hidden"><g transform="translate(-438 -168)"><path d="M460 168C467.18 168 473 173.596 473 180.5 473 187.404 467.18 193 460 193 452.82 193 447 187.404 447 180.5 447 173.596 452.82 168 460 168Z" fill="#FFFFFF" fill-rule="evenodd"/><path d="M473.5 181C473.5 187.904 467.68 193.5 460.5 193.5 453.32 193.5 447.5 187.904 447.5 181 447.5 174.097 453.32 168.5 460.5 168.5 467.68 168.5 473.5 174.097 473.5 181Z" stroke="#000000" stroke-width="0.666667" stroke-miterlimit="1" fill="#FFFFFF" fill-rule="evenodd"/><path d="M439 203 451 190Z" fill="#FFFFFF" fill-rule="evenodd"/><path d="M451.5 190.5 439.5 203.5" stroke="#000000" stroke-width="0.666667" stroke-miterlimit="1" fill="#FFFFFF" fill-rule="evenodd"/></g></svg>