<svg width="21" height="36" xmlns="http://www.w3.org/2000/svg" xmlns:xlink="http://www.w3.org/1999/xlink" overflow="hidden"><g transform="translate(-257 -445)"><path d="M266.4 461C267.163 461.224 266.767 461.244 267.6 461L267.6 462.8 276 462.8 276 463.4 267.6 463.4 267.6 468.8 276 478.4 275.4 479 267 469.4 258.6 479 258 478.4 266.4 468.8 266.4 463.4 258 463.4 258 462.8 266.4 462.8 266.4 461Z" fill-rule="evenodd"/><path d="M266.9 461.5C267.663 461.724 267.267 461.744 268.1 461.5L268.1 463.3 276.5 463.3 276.5 463.9 268.1 463.9 268.1 469.3 276.5 478.9 275.9 479.5 267.5 469.9 259.1 479.5 258.5 478.9 266.9 469.3 266.9 463.9 258.5 463.9 258.5 463.3 266.9 463.3 266.9 461.5Z" stroke="#000000" stroke-width="1.10373" stroke-miterlimit="1" fill-rule="evenodd"/><path d="M266.999 446C270.865 446 273.999 449.133 273.999 452.998L273.999 453C274 456.865 270.867 459.999 267.001 460 263.135 460 260.001 456.867 260 453.002L260 453C260 449.135 263.133 446.001 266.999 446Z" fill="#FFFFFF" fill-rule="evenodd"/><path d="M274.5 453.5C274.5 457.365 271.367 460.499 267.501 460.5 263.635 460.5 260.501 457.367 260.501 453.502L260.501 453.5C260.5 449.635 263.633 446.501 267.499 446.5 271.365 446.5 274.499 449.633 274.5 453.498L274.5 453.5Z" stroke="#000000" stroke-width="1.10373" stroke-miterlimit="1" fill="#FFFFFF" fill-rule="evenodd"/><path d="M267 461 268 461 268 468 267 468 267 461" fill-rule="evenodd"/><path d="M267.5 468.5 268.5 468.5 268.5 461.5 267.5 461.5Z" stroke="#000000" stroke-width="0.554646" stroke-miterlimit="1" fill-rule="evenodd"/></g></svg>