<svg width="51" height="32" xmlns="http://www.w3.org/2000/svg" xmlns:xlink="http://www.w3.org/1999/xlink" overflow="hidden"><g transform="translate(-621 -286)"><path d="M639 287.5C648.113 287.5 655.5 293.992 655.5 302 655.5 310.008 648.113 316.5 639 316.5 629.887 316.5 622.5 310.008 622.5 302 622.5 293.992 629.887 287.5 639 287.5Z" stroke="#000000" stroke-width="0.666667" stroke-miterlimit="1" fill="#FFFFFF" fill-rule="evenodd"/><path d="M655.5 287.5C664.337 287.5 671.5 293.992 671.5 302 671.5 310.008 664.337 316.5 655.5 316.5 646.663 316.5 639.5 310.008 639.5 302 639.5 293.992 646.663 287.5 655.5 287.5Z" stroke="#000000" stroke-width="0.666667" stroke-miterlimit="1" fill="#FFFFFF" fill-rule="evenodd"/><path d="M647.165 289.5C639.21 293.503 636.5 302.344 641.112 309.248 642.567 311.426 644.652 313.237 647.161 314.5 652.313 311.924 655.492 307.159 655.5 301.998 655.491 296.84 652.315 292.076 647.165 289.5Z" stroke="#000000" stroke-width="0.666667" stroke-miterlimit="1" fill="#FFFFFF" fill-rule="evenodd"/></g></svg>