<svg width="52" height="41" xmlns="http://www.w3.org/2000/svg" xmlns:xlink="http://www.w3.org/1999/xlink" overflow="hidden"><g transform="translate(-474 -349)"><path d="M512.412 350.005C514.624 350.01 515.901 350.279 517.873 351.157 521.645 352.837 524.113 355.981 524.764 359.935 525 361.372 524.853 363 524.341 364.631 523.124 368.5 520.058 371.314 515.829 372.443 510 374 503.892 371.496 501.256 366.47 500.303 364.654 500.011 363.476 500.005 361.438 500 359.407 500.287 358.253 501.256 356.405 502.502 354.029 504.372 352.306 506.95 351.157 508.956 350.264 510.208 350 512.412 350.005Z" fill="#FFFFFF" fill-rule="evenodd"/><path d="M516.329 372.943C520.558 371.814 523.624 369 524.84 365.131 525.353 363.5 525.5 361.872 525.264 360.436 524.613 356.482 522.145 353.337 518.373 351.657 516.401 350.78 515.124 350.51 512.911 350.505 510.708 350.5 509.456 350.764 507.45 351.657 504.872 352.806 503.002 354.529 501.756 356.905 500.787 358.753 500.5 359.907 500.505 361.938 500.511 363.976 500.803 365.154 501.756 366.97 504.392 371.997 510.5 374.5 516.329 372.943Z" stroke="#000000" stroke-width="0.84126" stroke-miterlimit="1" fill="none" fill-rule="evenodd"/><path d="M477 388C477 388 487.5 363 498 366.571L486.8 364.429C486.8 364.429 493.8 371.571 491.7 377.286L498 366.571" stroke="#000000" stroke-width="5.53743" stroke-linejoin="round" stroke-miterlimit="10" fill="none" fill-rule="evenodd"/><path d="M514 362 513 361Z" fill="#F5DEAA" fill-rule="evenodd"/><path d="M513 361 514 362" stroke="#000000" stroke-width="5.53743" stroke-linecap="round" stroke-miterlimit="1" fill="none" fill-rule="evenodd"/><path d="M514.998 368.527C517.535 367.821 519.374 366.063 520.104 363.645 520.412 362.625 520.5 361.608 520.358 360.71 519.968 358.238 518.487 356.273 516.224 355.223 515.041 354.675 514.274 354.506 512.947 354.503 511.625 354.5 510.874 354.665 509.67 355.223 508.123 355.941 507.001 357.018 506.254 358.503 505.672 359.658 505.5 360.379 505.503 361.649 505.507 362.923 505.682 363.659 506.254 364.794 507.835 367.935 511.5 369.5 514.998 368.527Z" stroke="#000000" stroke-width="0.84126" stroke-miterlimit="1" fill="none" fill-rule="evenodd"/></g></svg>