<svg width="54" height="25" xmlns="http://www.w3.org/2000/svg" xmlns:xlink="http://www.w3.org/1999/xlink" overflow="hidden"><g transform="translate(-527 -386)"><path d="M535.282 394 572.107 394 579 398.97 573.241 403 535.282 402.732 529 398.567 535.282 394Z" fill="#FFFFFF" fill-rule="evenodd"/><path d="M529 398.567 535.283 394 572.107 394 579 398.97 573.241 403 535.283 402.731Z" stroke="#000000" stroke-width="1.9621" stroke-linejoin="round" stroke-miterlimit="10" fill="#FFFFFF" fill-rule="evenodd"/><path d="M535 394 542 388Z" fill="#FFFFFF" fill-rule="evenodd"/><path d="M535 394 542 388" stroke="#000000" stroke-width="1.9621" stroke-linecap="round" stroke-linejoin="round" stroke-miterlimit="10" fill="#FFFFFF" fill-rule="evenodd"/><path d="M542 408 535 403Z" fill="#FFFFFF" fill-rule="evenodd"/><path d="M535 403 542 408" stroke="#000000" stroke-width="1.9621" stroke-linecap="round" stroke-miterlimit="1" fill="#FFFFFF" fill-rule="evenodd"/><path d="M566 409 574 403Z" fill="#FFFFFF" fill-rule="evenodd"/><path d="M574 403 566 409" stroke="#000000" stroke-width="1.9621" stroke-linecap="round" stroke-miterlimit="1" fill="#FFFFFF" fill-rule="evenodd"/><path d="M573 394 567 389Z" fill="#FFFFFF" fill-rule="evenodd"/><path d="M573 394 567 389" stroke="#000000" stroke-width="1.9621" stroke-linecap="round" stroke-miterlimit="1" fill="#FFFFFF" fill-rule="evenodd"/></g></svg>