<svg width="40" height="40" xmlns="http://www.w3.org/2000/svg" xmlns:xlink="http://www.w3.org/1999/xlink" overflow="hidden"><g transform="translate(-342 -166)"><path d="M363 172C370.733 172 377 178.268 377 185.999 377 193.732 370.733 200 363 200 355.267 200 349 193.732 349 185.999 349 178.268 355.267 172 363 172Z" fill="#FFFFFF" fill-rule="evenodd"/><path d="M363 172C370.733 172 377 178.268 377 185.999 377 193.732 370.733 200 363 200 355.267 200 349 193.732 349 185.999 349 178.268 355.267 172 363 172Z" stroke="#000000" stroke-width="3.69071" stroke-miterlimit="1" fill="#FFFFFF" fill-rule="evenodd"/><path d="M362.5 182C364.432 182 366 183.566 366 185.501 366 187.434 364.432 189 362.5 189 360.568 189 359 187.434 359 185.501 359 183.566 360.568 182 362.5 182Z" fill="#FFFFFF" fill-rule="evenodd"/><path d="M363 182.5C364.933 182.5 366.5 184.067 366.5 186.001 366.5 187.934 364.933 189.5 363 189.5 361.068 189.5 359.5 187.934 359.5 186.001 359.5 184.067 361.068 182.5 363 182.5Z" stroke="#000000" stroke-width="0.84399" stroke-miterlimit="1" fill-rule="evenodd"/><path d="M377.5 200.5 349.5 172.5Z" stroke="#000000" stroke-width="0.84399" stroke-miterlimit="1" fill="#FFFFFF" fill-rule="evenodd"/><path d="M349.5 200.5 377.5 172.5Z" stroke="#000000" stroke-width="0.84399" stroke-miterlimit="1" fill="#FFFFFF" fill-rule="evenodd"/><path d="M381.5 186.5 343.5 186.5" stroke="#000000" stroke-width="0.84399" stroke-miterlimit="1" fill="none" fill-rule="evenodd"/><path d="M363.5 167.5 363.5 205.5" stroke="#000000" stroke-width="0.84399" stroke-miterlimit="1" fill="none" fill-rule="evenodd"/></g></svg>