<svg width="45" height="45" xmlns="http://www.w3.org/2000/svg" xmlns:xlink="http://www.w3.org/1999/xlink" overflow="hidden"><g transform="translate(-288 -376)"><path d="M319.849 377.5C321.222 377.5 321.645 377.543 321.733 377.69 321.796 377.794 321.885 378.284 321.933 378.777 322.095 380.46 322.107 380.494 322.64 380.652 322.906 380.732 323.393 380.904 323.722 381.037L324.32 381.277 325.367 380.443C325.942 379.984 326.496 379.609 326.597 379.608 326.996 379.606 329.243 381.761 329.243 382.145 329.243 382.26 328.85 382.807 328.369 383.362L327.495 384.371 327.908 385.297C328.136 385.806 328.322 386.289 328.322 386.37 328.322 386.457 328.789 386.552 329.473 386.605 331.281 386.743 331.304 386.752 331.397 387.33 331.5 387.975 331.5 389.456 331.397 390.1L331.317 390.601 330.444 390.684C329.964 390.73 329.305 390.8 328.98 390.84L328.387 390.913 327.971 391.932 327.554 392.95 328.464 393.982C328.965 394.549 329.374 395.078 329.374 395.158 329.374 395.417 327.041 397.689 326.775 397.689 326.634 397.689 326.033 397.315 325.439 396.858L324.358 396.027 323.609 396.366C323.197 396.553 322.703 396.743 322.51 396.789 322.129 396.88 322.097 396.99 321.928 398.812 321.824 399.926 321.891 399.896 319.617 399.838L317.969 399.796 318.21 400.204C318.342 400.428 318.449 400.704 318.447 400.816 318.445 400.928 317.759 401.501 316.922 402.09 315.519 403.076 315.406 403.188 315.474 403.517 315.515 403.714 315.621 404.398 315.71 405.038L315.871 406.201 317.565 406.799C318.497 407.129 319.288 407.445 319.322 407.503 319.537 407.862 318.434 411.791 318.079 411.932 317.913 411.998 315.036 411.632 314.493 411.476 314.365 411.439 314.228 411.544 314.139 411.746 314.059 411.928 313.665 412.476 313.265 412.963L312.537 413.85 313.27 415.425C313.673 416.291 313.972 417.085 313.933 417.19 313.821 417.489 312.341 418.472 311.129 419.05 310.522 419.34 309.975 419.577 309.915 419.577 309.855 419.577 309.343 418.95 308.778 418.183 308.213 417.417 307.711 416.742 307.662 416.684 307.614 416.626 307.194 416.671 306.729 416.784 306.264 416.897 305.538 416.991 305.115 416.992 304.495 416.993 304.334 417.04 304.285 417.232 304.084 418.013 302.96 420.461 302.791 420.485 302.683 420.5 302.069 420.397 301.426 420.257 299.768 419.894 298.447 419.459 298.37 419.251 298.312 419.095 298.546 417.325 298.786 416.097 298.864 415.698 298.829 415.652 298.13 415.244 297.724 415.008 297.154 414.592 296.864 414.322L296.337 413.83 294.728 414.531C293.843 414.916 293.015 415.231 292.888 415.229 292.483 415.225 290.421 412.021 290.421 411.397 290.421 411.295 291.093 410.742 291.914 410.169L293.408 409.127 293.237 408.2C293.143 407.69 293.019 406.973 292.961 406.607L292.856 405.94 291.178 405.331C289.512 404.726 289.5 404.719 289.503 404.298 289.507 403.648 289.977 401.597 290.298 400.826 290.636 400.014 290.529 400.032 292.776 400.411 293.673 400.562 294.416 400.669 294.426 400.649 294.585 400.344 295.331 399.381 295.8 398.877L296.402 398.23 295.649 396.666C295.234 395.806 294.895 395.026 294.895 394.933 294.895 394.524 298.142 392.659 298.853 392.659 299.137 392.659 299.383 392.908 300.228 394.052 300.794 394.819 301.27 395.464 301.285 395.486 301.3 395.508 301.571 395.459 301.887 395.377 302.203 395.295 302.954 395.185 303.556 395.133L304.649 395.038 305.27 393.406C305.79 392.04 305.94 391.768 306.193 391.73 306.829 391.636 310.424 392.594 310.605 392.905 310.635 392.957 310.528 393.801 310.368 394.783L310.077 396.567 310.8 397.014C311.198 397.26 311.748 397.67 312.022 397.927L312.521 398.393 314.082 397.701C314.94 397.32 315.762 397.009 315.908 397.009 316.224 397.009 316.371 397.17 317.272 398.505 317.651 399.065 317.928 399.425 317.888 399.303 317.848 399.182 317.773 398.595 317.723 398L317.632 396.917 317.022 396.753C316.686 396.663 316.176 396.481 315.887 396.349L315.363 396.107 314.312 396.966C313.734 397.438 313.2 397.824 313.125 397.824 312.738 397.821 310.424 395.652 310.424 395.292 310.424 395.198 310.809 394.666 311.28 394.11L312.137 393.1 311.731 392.166C311.509 391.652 311.28 391.139 311.223 391.027 311.15 390.882 310.736 390.785 309.775 390.687 308.814 390.59 308.4 390.493 308.326 390.348 308.056 389.819 308.067 387.163 308.34 386.881 308.373 386.847 309.042 386.742 309.827 386.646L311.255 386.473 311.484 385.775C311.61 385.392 311.814 384.919 311.937 384.725L312.161 384.372 311.214 383.287 310.266 382.203 310.532 381.823C311.072 381.052 312.674 379.607 312.99 379.607 313.079 379.607 313.64 379.996 314.236 380.471L315.319 381.335 316.326 380.88C316.88 380.631 317.399 380.426 317.479 380.425 317.566 380.424 317.686 379.864 317.777 379.039 317.861 378.277 317.963 377.619 318.004 377.577 318.045 377.535 318.875 377.5 319.849 377.5Z" stroke="#000000" stroke-width="0.666667" stroke-linecap="round" stroke-linejoin="round" stroke-miterlimit="10" fill="#FFFFFF" fill-rule="evenodd"/><path d="M304.341 399.505C305.459 399.509 306.587 399.792 307.75 400.352 309.98 401.428 311.5 404.102 311.23 406.479 311.135 407.324 310.732 408.528 310.319 409.205 309.828 410.01 308.644 411.05 307.683 411.521 306.159 412.266 304.712 412.5 303.186 412.246 301.552 411.975 299.855 411.091 298.948 410.038 298.681 409.729 298.242 409.033 297.972 408.49 296.5 405.53 297.857 401.853 300.985 400.324 302.112 399.773 303.222 399.5 304.341 399.505Z" stroke="#000000" stroke-width="0.666667" stroke-linecap="round" stroke-linejoin="round" stroke-miterlimit="10" fill="#FFFFFF" fill-rule="evenodd"/><path d="M320.35 383.608C321.398 383.664 321.722 383.741 322.458 384.111 324.211 384.992 325.304 386.575 325.418 388.396 325.5 389.697 325.275 390.604 324.623 391.602 323.355 393.541 320.701 394.5 318.396 393.852 317.362 393.561 316.759 393.194 315.923 392.347 314.871 391.279 314.5 390.356 314.5 388.807 314.5 387.436 314.858 386.428 315.676 385.499 316.937 384.067 318.337 383.5 320.35 383.608Z" stroke="#000000" stroke-width="0.666667" stroke-linecap="round" stroke-linejoin="round" stroke-miterlimit="10" fill="#FFFFFF" fill-rule="evenodd"/></g></svg>