<svg width="55" height="37" xmlns="http://www.w3.org/2000/svg" xmlns:xlink="http://www.w3.org/1999/xlink" overflow="hidden"><g transform="translate(-400 -380)"><path d="M401.5 381.5 409.044 381.5 409.044 392.896C409.044 399.164 409.059 404.292 409.077 404.292 409.095 404.292 412.449 402.91 416.531 401.22 420.613 399.53 424.014 398.129 424.09 398.107 424.21 398.073 424.228 398.483 424.228 401.215 424.228 402.947 424.252 404.363 424.28 404.363 424.323 404.363 437.894 398.767 439.009 398.29L439.315 398.159 439.339 401.288 439.364 404.416 446.248 401.563C450.035 399.994 453.44 398.583 453.816 398.427L454.5 398.143 454.5 416.5 401.5 416.5 401.5 399 401.5 381.5Z" stroke="#000000" stroke-width="0.666667" stroke-miterlimit="1" fill="#FFFFFF" fill-rule="evenodd"/></g></svg>