<svg width="40" height="40" xmlns="http://www.w3.org/2000/svg" xmlns:xlink="http://www.w3.org/1999/xlink" overflow="hidden"><g transform="translate(-524 -166)"><path d="M543.997 167.501C554.205 167.5 562.484 175.766 562.499 185.973L562.499 185.997C562.5 196.214 554.219 204.497 544.003 204.499 533.786 204.5 525.503 196.219 525.503 186.003 525.5 175.786 533.781 167.503 543.997 167.501Z" stroke="#000000" stroke-width="0.952021" stroke-miterlimit="1" fill="none" fill-rule="evenodd"/><path d="M544.501 174.501C551.122 174.501 556.492 179.865 556.5 186.485L556.5 186.501C556.5 193.128 551.127 198.5 544.5 198.499 537.873 198.499 532.5 193.126 532.5 186.499 532.501 179.872 537.874 174.5 544.501 174.501Z" stroke="#000000" stroke-width="0.952021" stroke-miterlimit="1" fill="none" fill-rule="evenodd"/><path d="M544.5 186.5 545.5 186.5" stroke="#000000" stroke-width="15.4627" stroke-linecap="round" stroke-miterlimit="1" fill="none" fill-rule="evenodd"/></g></svg>