<svg width="26" height="34" xmlns="http://www.w3.org/2000/svg" xmlns:xlink="http://www.w3.org/1999/xlink" overflow="hidden"><g transform="translate(-250 -411)"><path d="M260.707 412.383C263.675 412 266.457 412.647 268.43 413.633 270.043 414.44 271.291 415.517 272.241 416.786 273.231 418.111 273.913 419.676 273.971 421.718 274 422.764 273.8 423.733 273.518 424.536 273.232 425.35 272.773 426.03 272.364 426.756 271.567 428.173 270.567 429.472 269.563 430.772 266.574 434.643 263.769 438.591 262.54 444 261.691 440.435 260.193 437.467 258.38 434.717 257.034 432.678 255.476 430.795 254.034 428.817 253.553 428.156 253.137 427.459 252.675 426.773 251.75 425.403 251 423.814 251.048 421.753 251.094 419.74 251.775 418.125 252.757 416.804 254.372 414.632 257.077 412.851 260.707 412.383Z" fill="#FFFFFF" fill-rule="evenodd"/><path d="M263.04 444.5C262.191 440.935 260.694 437.967 258.88 435.217 257.535 433.178 255.976 431.295 254.534 429.317 254.053 428.656 253.637 427.959 253.175 427.273 252.25 425.903 251.5 424.314 251.548 422.253 251.594 420.24 252.275 418.625 253.257 417.304 254.872 415.132 257.577 413.351 261.207 412.883 264.175 412.5 266.957 413.147 268.931 414.133 270.543 414.94 271.792 416.017 272.741 417.286 273.731 418.611 274.414 420.176 274.471 422.218 274.5 423.264 274.3 424.233 274.018 425.036 273.732 425.85 273.273 426.53 272.864 427.256 272.067 428.673 271.067 429.972 270.063 431.272 267.074 435.143 264.269 439.091 263.04 444.5Z" stroke="#000000" stroke-width="0.528504" stroke-miterlimit="1" fill="#FFFFFF" fill-rule="evenodd"/></g></svg>