<svg width="60" height="38" xmlns="http://www.w3.org/2000/svg" xmlns:xlink="http://www.w3.org/1999/xlink" overflow="hidden"><g transform="translate(-1031 -156)"><path d="M1057.54 157.333C1060.05 157.482 1062.56 158.37 1063.28 159.556 1067.59 157.185 1080.51 157.185 1080.51 159.556 1089.13 157.185 1092 166.667 1086.26 169.037 1092 169.037 1089.22 175.629 1086.26 178.518 1086.26 188 1074.77 185.63 1069.03 183.259 1063.28 185.63 1040.31 188 1046.05 180.889 1037.44 180.889 1038.87 166.667 1043.18 166.667 1036 159.556 1046.05 156 1051.79 159.556 1052.51 157.778 1055.03 157.185 1057.54 157.333Z" fill="#FFFFFF" fill-rule="evenodd"/><path d="M1043.68 167.167C1036.5 160.056 1046.55 156.5 1052.29 160.056 1053.73 156.5 1062.35 157.685 1063.78 160.056 1068.09 157.685 1081.01 157.685 1081.01 160.056 1089.63 157.685 1092.5 167.167 1086.76 169.537 1092.5 169.537 1089.72 176.129 1086.76 179.019 1086.76 188.5 1075.27 186.13 1069.53 183.759 1063.78 186.13 1040.81 188.5 1046.55 181.389 1037.94 181.389 1039.37 167.167 1043.68 167.167Z" stroke="#000000" stroke-width="0.609344" stroke-miterlimit="1" fill="#FFFFFF" fill-rule="evenodd"/><path d="M1039 181C1041.21 181 1043 182.567 1043 184.5 1043 186.433 1041.21 188 1039 188 1036.79 188 1035 186.433 1035 184.5 1035 182.567 1036.79 181 1039 181Z" fill="#FFFFFF" fill-rule="evenodd"/><path d="M1039.5 181.5C1041.71 181.5 1043.5 183.067 1043.5 185 1043.5 186.933 1041.71 188.5 1039.5 188.5 1037.29 188.5 1035.5 186.933 1035.5 185 1035.5 183.067 1037.29 181.5 1039.5 181.5Z" stroke="#000000" stroke-width="0.609344" stroke-miterlimit="1" fill="#FFFFFF" fill-rule="evenodd"/><path d="M1035 188C1036.66 188 1038 189.119 1038 190.5 1038 191.881 1036.66 193 1035 193 1033.34 193 1032 191.881 1032 190.5 1032 189.119 1033.34 188 1035 188Z" fill="#FFFFFF" fill-rule="evenodd"/><path d="M1035.5 188.5C1037.16 188.5 1038.5 189.619 1038.5 191 1038.5 192.381 1037.16 193.5 1035.5 193.5 1033.84 193.5 1032.5 192.381 1032.5 191 1032.5 189.619 1033.84 188.5 1035.5 188.5Z" stroke="#000000" stroke-width="0.609344" stroke-miterlimit="1" fill="#FFFFFF" fill-rule="evenodd"/></g></svg>