<svg width="46" height="46" xmlns="http://www.w3.org/2000/svg" xmlns:xlink="http://www.w3.org/1999/xlink" overflow="hidden"><g transform="translate(-614 -157)"><path d="M647.499 186.498C647.5 195.334 640.338 202.498 631.502 202.499 622.666 202.5 615.502 195.338 615.501 186.502 615.5 177.666 622.662 170.502 631.498 170.501 640.326 170.5 647.486 177.649 647.499 186.477" stroke="#000000" stroke-width="0.832231" stroke-miterlimit="1" fill="none" fill-rule="evenodd"/><path d="M641.5 186.001C641.5 191.799 636.799 196.5 630.999 196.5 625.201 196.499 620.5 191.798 620.5 185.999 620.501 180.201 625.202 175.5 631.001 175.5 636.795 175.501 641.493 180.194 641.5 185.987" stroke="#000000" stroke-width="0.832231" stroke-miterlimit="1" fill="none" fill-rule="evenodd"/><path d="M636.499 185.997C636.5 189.034 634.263 191.497 631.503 191.498 628.742 191.5 626.503 189.04 626.502 186.003 626.5 182.966 628.737 180.503 631.498 180.501 634.255 180.5 636.494 182.956 636.499 185.99" stroke="#000000" stroke-width="0.832231" stroke-miterlimit="1" fill="none" fill-rule="evenodd"/><path d="M652 165 633 184" stroke="#000000" stroke-width="3.97585" stroke-linecap="round" stroke-miterlimit="1" fill="none" fill-rule="evenodd"/><path d="M658.5 167.798 645.5 172.5 648.418 159.5" stroke="#000000" stroke-width="2.62803" stroke-linecap="round" stroke-linejoin="round" stroke-miterlimit="10" fill="none" fill-rule="evenodd"/><path d="M632.105 177 640 184.297 630 186 632.105 177Z" fill="#CCCCFF" fill-rule="evenodd"/><path d="M630.5 186.5 640.5 184.797 632.605 177.5Z" stroke="#000000" stroke-width="5.10394" stroke-linecap="round" stroke-linejoin="round" stroke-miterlimit="10" fill-rule="evenodd"/></g></svg>