<svg width="42" height="36" xmlns="http://www.w3.org/2000/svg" xmlns:xlink="http://www.w3.org/1999/xlink" overflow="hidden"><g transform="translate(-709 -168)"><path d="M730 169C737.692 169 745.385 169.667 746.923 171 750 173.667 750 197.667 746.923 200.333 743.846 203 716.154 203 713.077 200.333 710 197.667 710 173.667 713.077 171 714.615 169.667 722.308 169 730 169Z" fill="#FFFFFF" fill-rule="evenodd"/><path d="M713.577 171.192C716.654 168.5 744.346 168.5 747.423 171.192 750.5 173.885 750.5 198.115 747.423 200.808 744.346 203.5 716.654 203.5 713.577 200.808 710.5 198.115 710.5 173.885 713.577 171.192Z" stroke="#000000" stroke-width="0.666667" stroke-miterlimit="1" fill="#FFFFFF" fill-rule="evenodd"/><path d="M730 175 732 175C730.667 193 730 193 730 175Z" stroke="#000000" stroke-width="1.8947" stroke-miterlimit="1" fill-rule="evenodd"/><path d="M731 196 730 195Z" fill="#FFFFFF" fill-rule="evenodd"/><path d="M730.5 195.5 731.5 196.5" stroke="#000000" stroke-width="4.60147" stroke-linecap="round" stroke-miterlimit="1" fill="#FFFFFF" fill-rule="evenodd"/></g></svg>