<svg width="55" height="26" xmlns="http://www.w3.org/2000/svg" xmlns:xlink="http://www.w3.org/1999/xlink" overflow="hidden"><g transform="translate(-240 -271)"><path d="M265.503 272.521C275.52 272.541 285.488 272.665 286.311 272.875 288.512 273.435 289.108 274.381 289.253 277.542L289.381 280.314 291.327 280.314C294.258 280.314 294.5 280.637 294.5 284.549 294.5 288.386 294.261 288.687 291.228 288.687L289.311 288.687 289.311 291.13C289.31 294.048 288.653 295.285 286.717 296.014 285.527 296.462 283.758 296.5 265.406 296.477 254.398 296.463 244.86 296.337 244.211 296.195 243.561 296.054 242.685 295.608 242.265 295.206 241.525 294.497 241.5 294.152 241.5 284.501 241.5 274.864 241.526 274.503 242.261 273.799 242.68 273.398 243.646 272.944 244.408 272.789 245.423 272.583 255.487 272.5 265.503 272.521Z" stroke="#000000" stroke-width="0.666667" stroke-linecap="round" stroke-linejoin="round" stroke-miterlimit="10" fill="#FFFFFF" fill-rule="evenodd"/><path d="M289 288 290 279Z" fill="#FFFFFF" fill-rule="evenodd"/><path d="M290.5 279.5 289.5 288.5" stroke="#000000" stroke-width="0.560105" stroke-miterlimit="1" fill="#FFFFFF" fill-rule="evenodd"/><path d="M250.5 277.5 250.5 290.5" stroke="#000000" stroke-width="0.560105" stroke-miterlimit="1" fill="none" fill-rule="evenodd"/><path d="M259.5 277.5 259.5 290.5" stroke="#000000" stroke-width="0.560105" stroke-miterlimit="1" fill="none" fill-rule="evenodd"/><path d="M267.5 277.5 267.5 290.5" stroke="#000000" stroke-width="0.560105" stroke-miterlimit="1" fill="none" fill-rule="evenodd"/></g></svg>