<svg width="62" height="32" xmlns="http://www.w3.org/2000/svg" xmlns:xlink="http://www.w3.org/1999/xlink" overflow="hidden"><g transform="translate(-360 -447)"><path d="M368.929 448.5 413.5 448.5 413.5 478.5 368.929 478.5C364.826 478.5 361.5 471.784 361.5 463.5 361.5 455.216 364.826 448.5 368.929 448.5Z" stroke="#000000" stroke-width="0.666667" stroke-miterlimit="1" fill="#FFFFFF" fill-rule="evenodd"/><path d="M413.5 448C417.642 448 421 454.716 421 463 421 471.284 417.642 478 413.5 478 409.358 478 406 471.284 406 463 406 454.716 409.358 448 413.5 448Z" fill="#FFFFFF" fill-rule="evenodd"/><path d="M414 448.5C418.142 448.5 421.5 455.216 421.5 463.5 421.5 471.784 418.142 478.5 414 478.5 409.858 478.5 406.5 471.784 406.5 463.5 406.5 455.216 409.858 448.5 414 448.5Z" stroke="#000000" stroke-width="0.666667" stroke-miterlimit="1" fill="#FFFFFF" fill-rule="evenodd"/></g></svg>