<svg width="37" height="33" xmlns="http://www.w3.org/2000/svg" xmlns:xlink="http://www.w3.org/1999/xlink" overflow="hidden"><g transform="translate(-470 -285)"><path d="M491.617 286.57C496.041 286.779 500.397 288.657 502.814 292.065 505.595 295.751 506.5 300.687 504.515 304.845 503.495 307.188 501.741 309.407 499.147 310.5L477.5 293.868C479.154 290.233 483.194 287.983 487.239 286.922 488.66 286.616 490.142 286.5 491.617 286.57Z" stroke="#000000" stroke-width="0.666667" stroke-miterlimit="1" fill="#FFFFFF" fill-rule="evenodd"/><path d="M485.5 291C493.508 291 500 296.82 500 304 500 311.18 493.508 317 485.5 317 477.492 317 471 311.18 471 304 471 296.82 477.492 291 485.5 291Z" fill="#FFFFFF" fill-rule="evenodd"/><path d="M500.5 304.5C500.5 311.68 494.008 317.5 486 317.5 477.992 317.5 471.5 311.68 471.5 304.5 471.5 297.32 477.992 291.5 486 291.5 494.008 291.5 500.5 297.32 500.5 304.5Z" stroke="#000000" stroke-width="0.643045" stroke-miterlimit="1" fill="#FFFFFF" fill-rule="evenodd"/></g></svg>