<svg width="42" height="36" xmlns="http://www.w3.org/2000/svg"
    xmlns:xlink="http://www.w3.org/1999/xlink" overflow="hidden">
    <g transform="translate(-241 -212)">
        <path
            d="M262.509 237.912C265.527 236.089 267.722 232.824 268.363 229.219 269 225.61 268.066 221.731 265.875 218.884 263.645 215.978 260.165 214.205 256.623 214.104 253.081 214 249.535 215.549 247.051 218.215 245.238 220.163 243.982 222.682 243.491 225.359 243 228.041 243.275 230.873 244.271 233.392 245.264 235.915 246.978 238.113 249.128 239.632 251.278 241.154 253.857 241.988 256.447 242"
            stroke="#000000" stroke-width="3.58709" stroke-linecap="round" stroke-miterlimit="1"
            fill="none" fill-rule="evenodd" />
        <path d="M256 242 271 242" stroke="#000000" stroke-width="3.58709" stroke-miterlimit="1"
            fill="none" fill-rule="evenodd" />
        <path d="M271 235 282 241.671 273.206 247 271 247 271 235Z" fill-rule="evenodd" />
    </g>
</svg>